<?xml version="1.0" standalone="no"?>
<!DOCTYPE svg PUBLIC "-//W3C//DTD SVG 20010904//EN"
 "http://www.w3.org/TR/2001/REC-SVG-20010904/DTD/svg10.dtd">
<svg version="1.0" xmlns="http://www.w3.org/2000/svg"
 width="110.000000pt" height="110.000000pt" viewBox="0 0 110.000000 110.000000"
 preserveAspectRatio="xMidYMid meet">
<metadata>
Created by potrace 1.14, written by Peter Selinger 2001-2017
</metadata>
<g transform="translate(0.000000,110.000000) scale(0.100000,-0.100000)"
fill="#000000" stroke="none">
<path d="M479 1039 c-198 -28 -373 -192 -408 -384 -49 -262 114 -509 375 -571
265 -62 537 122 580 392 52 324 -224 609 -547 563z m-3 -305 c45 -63 71 -91
78 -85 6 5 38 47 70 94 50 70 64 84 85 82 l26 -1 0 -149 0 -149 -26 -1 c-26
-2 -27 0 -27 49 0 28 0 73 -1 100 l-1 50 -45 -65 c-25 -35 -45 -68 -45 -74 1
-5 45 -73 99 -150 l99 -140 -31 -3 c-31 -4 -36 0 -85 63 -7 8 -178 13 -239 6
-6 0 -21 -17 -33 -36 -18 -29 -27 -35 -57 -35 -19 0 -33 3 -31 8 10 22 174
252 181 252 4 0 13 -11 19 -25 10 -22 8 -30 -11 -55 -12 -17 -20 -34 -17 -38
7 -11 131 -9 130 2 -1 4 -32 51 -70 105 -38 53 -82 115 -97 139 -16 23 -31 42
-34 42 -2 0 -3 -42 -2 -92 l2 -93 -29 -3 -30 -3 1 138 c0 76 3 143 7 148 4 6
16 11 27 12 15 1 38 -23 87 -93z"/>
</g>
</svg>
