<svg id="Logo" xmlns="http://www.w3.org/2000/svg" viewBox="0 0 359.8 98.83"><defs><style>.clsPM-1{fill:#040706;}.clsPM-2{fill:#5fb2e4;}</style></defs><title>positive_logo</title><path class="clsPM-1" d="M259.92,138.84c-.88-.39-1.77-.76-2.66-1.12a60.87,60.87,0,0,0-22.3-4.22h0a60.91,60.91,0,0,0-22.38,4.25q-1.34.53-2.65,1.12t-2.65,1.27h0l0,0,.31,3,0,.26.33,3.24.4,3.93,3.3,32.49,3.21,31.56.27,2.61.14,1.35,1,9.66c.95.43,1.91.84,2.9,1.2s1.89.67,2.86,1a45.24,45.24,0,0,0,13,1.89h0a45.2,45.2,0,0,0,12.87-1.87c1-.29,1.93-.6,2.87-1s1.95-.77,2.9-1.21l1-9.67.14-1.35.27-2.6,3.21-31.57,3.31-32.56.39-3.85.33-3.24,0-.33.3-2.93v-.1Q261.26,139.44,259.92,138.84Zm-47,1.85A58,58,0,0,1,235,136.34h0a58,58,0,0,1,22,4.32c.77.31,1.52.64,2.27,1-.82.33-1.64.64-2.47.94A65.62,65.62,0,0,1,235,146.34h0a65.61,65.61,0,0,1-21.89-3.78c-.8-.29-1.59-.59-2.38-.91C211.41,141.32,212.13,141,212.87,140.69ZM259,147.82l-.1,1-3.59,35.34-3.2,31.49h0a3.13,3.13,0,0,1-1.17.81h0l-.06,0c-.56.21-1.12.41-1.69.6a45.09,45.09,0,0,1-14.24,2.3h0A45.12,45.12,0,0,1,220.63,217c-.57-.19-1.13-.39-1.69-.6h0a2.51,2.51,0,0,1-1.18-.81h0l-3.2-31.49-3.58-35.27-.11-1-.32-3.17c.95.37,1.9.71,2.87,1,.7.23,1.39.46,2.1.67A68,68,0,0,0,235,149.18h0a68,68,0,0,0,19.48-2.85q1-.3,2-.64,1.46-.48,2.88-1Z" transform="translate(-207.25 -133.51)"/><path class="clsPM-2" d="M235,152h0a71.47,71.47,0,0,1-11.85-1q-2.47-.42-4.86-1c-1.54-.37-3.06-.79-4.55-1.26l.3,3,.68,6.67,2.7,26.59q2.25.63,4.56,1.1L219,157.86l-.5-4.86c1.32.31,2.9.64,4.68.92l.14,3.41,1.22,29.24a64.89,64.89,0,0,0,10.37.83h0a65.08,65.08,0,0,0,17.49-2.4l3.21-31.6.17-1.67.3-2.94A70.8,70.8,0,0,1,235,152Z" transform="translate(-207.25 -133.51)"/><path class="clsPM-1" d="M304.92,162.38q1.67,1.9,1.67,6a71.24,71.24,0,0,1-.58,8.74,89.12,89.12,0,0,1-1.77,9.66,22.89,22.89,0,0,1-3.6,8.3q-2.42,3.3-5.55,3.3-1.29,0-6.87-3.54l-2.59,16.26q-3.26,0-3.54-.54a1.9,1.9,0,0,1-.14-.82,12.32,12.32,0,0,1,.21-1.77l7.48-47,9.45-.48Q303.26,160.47,304.92,162.38Zm-10.31,32.31q2.45,0,4.35-5a48,48,0,0,0,2.65-10.37,67.27,67.27,0,0,0,.75-9.11q0-3.78-.68-4.93c-.45-.77-1.63-1.16-3.31-1.16h-5.31l-.23,1.7-3.74,23.81-.33,1.87C292.41,193.72,294.16,194.69,294.62,194.69Z" transform="translate(-207.25 -133.51)"/><path class="clsPM-1" d="M329,187.27a18.51,18.51,0,0,1-4.25,7.76,9.27,9.27,0,0,1-6.94,2.92q-4.12,0-5.78-1.63t-1.67-6.23a75.39,75.39,0,0,1,.61-9.45,58.9,58.9,0,0,1,2-9.62,18.21,18.21,0,0,1,4.25-7.65,9.32,9.32,0,0,1,6.94-2.89q4.12,0,5.82,1.6t1.7,6.05a72.23,72.23,0,0,1-.65,9.39A63.25,63.25,0,0,1,329,187.27Zm-13.57,6a4,4,0,0,0,3.23,1.12q2.31,0,4.15-3a23.25,23.25,0,0,0,2.79-7.24,68.47,68.47,0,0,0,2-15.31,5.74,5.74,0,0,0-.92-3.67,4.06,4.06,0,0,0-3.23-1.09q-2.31,0-4.15,2.85a21.93,21.93,0,0,0-2.79,7.08,67.18,67.18,0,0,0-2,15.51A5.88,5.88,0,0,0,315.4,193.22Z" transform="translate(-207.25 -133.51)"/><path class="clsPM-1" d="M334.14,193.6l7.41.4h.68q2.11-.06,3.43-2.62a11.82,11.82,0,0,0,1.33-5.54c0-.23,0-.58,0-1.06a4.24,4.24,0,0,0-1.09-2,17,17,0,0,0-2.55-2.55q-1.5-1.23-3-2.59-3.54-3.19-3.67-6.73a15.27,15.27,0,0,1,.92-5.68,6.84,6.84,0,0,1,1.87-3c1.58-1.18,2.69-1.91,6.67-1.91l6.32.75q-.34,3-2.72,3.13a5.6,5.6,0,0,1-1-.13l-2.72-.27q-5.38.2-5.37,5.37,0,3.33,5.31,7.48a20.5,20.5,0,0,1,3.61,3.54,7.35,7.35,0,0,1,1.77,4.73,19.69,19.69,0,0,1-.82,5.41,12.32,12.32,0,0,1-3.1,5.21,7.77,7.77,0,0,1-5.61,2.41,35.23,35.23,0,0,1-4.8-.34c-1.65-.22-2.73-.36-3.23-.41Z" transform="translate(-207.25 -133.51)"/><path class="clsPM-1" d="M356.18,197.2a1.83,1.83,0,0,1-.14-.82q0-.54,5.58-35.44a16.74,16.74,0,0,1,3.06.17c.45.12.68.36.68.75a17.07,17.07,0,0,1-.27,2.21l-5.31,33.67Q356.45,197.75,356.18,197.2Zm8.37-42.51q-2.31,0-2.31-2.65a3.61,3.61,0,0,1,1-2.45,3,3,0,0,1,2.38-1.09q2.25,0,2.25,2.59a3.7,3.7,0,0,1-1,2.51A3,3,0,0,1,364.54,154.69Z" transform="translate(-207.25 -133.51)"/><path class="clsPM-1" d="M370.9,196.66a5.14,5.14,0,0,1-1.19-3.81A89.68,89.68,0,0,1,371,182l2.45-15.65.28-1.7h-2.67l.61-3.67h2.83l.37-2.38.41-3q3.33,0,3.61.55a1.92,1.92,0,0,1,.14.82,12.06,12.06,0,0,1-.21,1.77l-.3,2.25h5.82a7,7,0,0,1-1,3.09c-.36.39-1.34.58-2.92.58h-2.69l-.31,1.7L375,182a91.72,91.72,0,0,0-1.22,9.52q0,2.86,2,2.85h4.63l-.48,3.13-4.76.34Q372.09,197.82,370.9,196.66Z" transform="translate(-207.25 -133.51)"/><path class="clsPM-1" d="M384.88,197.2a1.87,1.87,0,0,1-.14-.82q0-.54,5.58-35.44a16.78,16.78,0,0,1,3.06.17c.45.12.68.36.68.75a16.69,16.69,0,0,1-.27,2.21l-5.31,33.67Q385.15,197.75,384.88,197.2Zm8.36-42.51q-2.31,0-2.31-2.65a3.61,3.61,0,0,1,1-2.45,3,3,0,0,1,2.38-1.09q2.25,0,2.25,2.59a3.69,3.69,0,0,1-1,2.51A3,3,0,0,1,393.24,154.69Z" transform="translate(-207.25 -133.51)"/><path class="clsPM-1" d="M418.75,161.36a.28.28,0,0,1,.07.21.61.61,0,0,1-.07.27L408.28,192a22.18,22.18,0,0,1-2,4.76q-.58.68-2.62.68a2.46,2.46,0,0,1-1.9-.82,7.1,7.1,0,0,1-1.63-4.62l-.95-31.09q2.92,0,3.43.41c.34.27.51,1.18.51,2.72l.54,28h.88l10.54-31.09Q418.55,160.95,418.75,161.36Z" transform="translate(-207.25 -133.51)"/><path class="clsPM-1" d="M435.15,196.79a44.13,44.13,0,0,1-9,1.16q-3.64,0-5.34-1.57a6.11,6.11,0,0,1-1.7-4.73,65.11,65.11,0,0,1,1-9.25q1-6.09,1.19-7.58c.16-1,.41-2.29.75-3.88a23.77,23.77,0,0,1,.92-3.4q.41-1,1.09-2.55a5.22,5.22,0,0,1,1.46-2.11q.78-.58,1.87-1.33,1.7-1.09,5.48-1.09T438,162a6.86,6.86,0,0,1,1.39,4.73,27.48,27.48,0,0,1-1.16,7.21,8.34,8.34,0,0,1-2.65,4,7.05,7.05,0,0,1-4.69,1.6h-6.41l-.32,1.7a61.75,61.75,0,0,0-1,8.5,4.79,4.79,0,0,0,1,3.4q1,1,4.32,1a33.45,33.45,0,0,0,7.28-.88Zm-4.83-20.88a3.78,3.78,0,0,0,2.58-1,5.34,5.34,0,0,0,1.57-2.38,14,14,0,0,0,.88-4.35q0-4.15-3-4.15a5.65,5.65,0,0,0-4.28,1.56,7.43,7.43,0,0,0-1.53,3.57q-.51,2.49-.85,5l-.22,1.7Z" transform="translate(-207.25 -133.51)"/><path class="clsPM-2" d="M454.82,196.19l3.88-27.62a2.13,2.13,0,0,0-2.38-2.45l-5.52,3.09-.19,1.26-4.22,27.28q-4.69,0-5.17-.68a1,1,0,0,1-.27-.75q0-.47,5.44-35.1h1.22a13.51,13.51,0,0,1,1.77.1,2.46,2.46,0,0,1,1.39.75,2.73,2.73,0,0,1,.64,2v.55c.41-.27,1-.77,1.9-1.5q2.72-2.38,3.54-2.38a11.73,11.73,0,0,1,4.66.74,4.17,4.17,0,0,1,2.08,1.57,7.69,7.69,0,0,1,.61,2.31,7.47,7.47,0,0,1,2.89-3.19,6.88,6.88,0,0,1,3.5-1.43,13.84,13.84,0,0,1,6.05,1q1.9,1,1.9,3.77,0,.48-4.56,32.24-4.7,0-5.17-.68a1.09,1.09,0,0,1-.27-.82q.41-3.81,4-28.3,0-1.84-2.52-1.83c-.54,0-2.19.89-5.41,3l-.23,1.37-4.22,27.28q-4.63,0-5.1-.68A1.23,1.23,0,0,1,454.82,196.19Z" transform="translate(-207.25 -133.51)"/><path class="clsPM-2" d="M490.73,198.23q-4.76,0-6.6-1.7t-1.84-5.85q0-23.67,9.18-28.7a11.11,11.11,0,0,1,5.51-1.22q3.33,0,4.9,1.67t1.57,5.27a25.9,25.9,0,0,1-1.23,7.35,8.7,8.7,0,0,1-2.82,4.15,7.67,7.67,0,0,1-5,1.63h-5.88l-.1.75a39.78,39.78,0,0,0-.41,5.31c0,1.55,0,2.55.07,3a6.83,6.83,0,0,0,.34,1.53,1.56,1.56,0,0,0,1,1.06,11.51,11.51,0,0,0,3,.24,43,43,0,0,0,7.75-1.16l-.75,5.44A51.55,51.55,0,0,1,490.73,198.23Zm2.93-22.1a2.94,2.94,0,0,0,2.59-1.5,10,10,0,0,0,1.43-5.51q0-3-1.84-3a4.71,4.71,0,0,0-4.28,2.14,18,18,0,0,0-2,6.77l-.11,1.09Z" transform="translate(-207.25 -133.51)"/><path class="clsPM-2" d="M531.41,150.28s-2.45,15.87-7.35,47.48a18.34,18.34,0,0,1-4.35-.31c-.64-.2-1-.83-1-1.87a.65.65,0,0,1,.07-.27l-4.22,2.92q-4.63,0-6.43-1.73t-1.8-5.92a69,69,0,0,1,.58-8.74,71.38,71.38,0,0,1,1.94-9.62,19.31,19.31,0,0,1,4.32-8.26,9.28,9.28,0,0,1,7-3.2h3.94L526,148.64a24.53,24.53,0,0,1,4.29.24A1.28,1.28,0,0,1,531.41,150.28Zm-12,15.85q-2.45,0-4.22,5.27a52.43,52.43,0,0,0-2.38,10.3,68.49,68.49,0,0,0-.61,7.31,5.63,5.63,0,0,0,.54,3,2.42,2.42,0,0,0,2,.82l4.77-2.42.2-1.26,3.54-22.72,0-.33Z" transform="translate(-207.25 -133.51)"/><path class="clsPM-2" d="M541.28,162.79,535.83,198q-4.69,0-5.24-.68a1.25,1.25,0,0,1-.2-.75,2.43,2.43,0,0,1,.07-.68l5.44-34.69q4.56,0,5.1.61A1.5,1.5,0,0,1,541.28,162.79Zm1.06-6.87a3.69,3.69,0,0,1-2.79,1.29,3,3,0,0,1-2.42-1,3.8,3.8,0,0,1-.81-2.55,4.29,4.29,0,0,1,1.19-2.93,3.69,3.69,0,0,1,2.82-1.32q3.19,0,3.2,3.4A4.38,4.38,0,0,1,542.33,155.92Z" transform="translate(-207.25 -133.51)"/><path class="clsPM-2" d="M545.08,196.6q-1.43-1.63-1.43-5.75a75.93,75.93,0,0,1,.54-8.78,84.9,84.9,0,0,1,1.77-9.8,22.91,22.91,0,0,1,3.71-8.47,7.21,7.21,0,0,1,5.88-3.33q1.84,0,7.14,1.77a5.46,5.46,0,0,1,3.13,1.12,3.19,3.19,0,0,1,1.22,2.62s-1.66,10.63-5,31.77a16.19,16.19,0,0,1-4.32-.34,1.53,1.53,0,0,1-.92-1.63v-.34l.2-2.25-6,5Q546.51,198.23,545.08,196.6Zm11.09-30.54q-2,0-3.71,5.27a59.06,59.06,0,0,0-2.31,10.47,69.87,69.87,0,0,0-.65,7.28,7.56,7.56,0,0,0,.31,2.72,1.24,1.24,0,0,0,1.26.65l6.8-5.06.2-1.33L561,168.24l.13-.78A21.45,21.45,0,0,0,556.17,166.06Z" transform="translate(-207.25 -133.51)"/></svg>